# xmcd
# Track frame offsets:
# 150
# 13630
# 26151
# 39980
# 51315
# 62247
# 74796
# 87899
# 100443
# 112458
# 124561
# 136669
# 149221
# 162285
# 173749
# 187694
# 200808
# 212283
# 223155
# 235271
# 247185
# 259050
# 271889
# 283411
# 296613
# 307647
#
# Disc length: 4237 seconds
# Revision: 0
# Processed by: cddbd v1.5.2PL0 Copyright (c) Steve Scherf et al.
# Submitted via: VisiTrax 2.11.1.266 - For more info visit www.synapsa.com
#
DISCID=9a108b1a
DTITLE=McPhatter, Clyde and the Drifters - Drifters: All the Singles 1953 - 195
DTITLE=8 Disk 1 of 2 (Mono)
DYEAR=1958
DGENRE=R&B
TTITLE0=McPhatter, Clyde and the Drifters - Money Honey
TTITLE1=McPhatter, Clyde and the Drifters - Way I Feel, The
TTITLE2=McPhatter, Clyde and the Drifters - Lucille
TTITLE3=McPhatter, Clyde and the Drifters - Suck A Night
TTITLE4=McPhatter, Clyde and the Drifters - Honey Love
TTITLE5=McPhatter, Clyde and the Drifters - Warm Your Heart
TTITLE6=McPhatter, Clyde and the Drifters - Someday
TTITLE7=McPhatter, Clyde and the Drifters - Bip Bam
TTITLE8=McPhatter, Clyde and the Drifters - White Christmas
TTITLE9=McPhatter, Clyde and the Drifters - Bells of St Mary's
TTITLE10=McPhatter, Clyde and the Drifters - Gone
TTITLE11=McPhatter, Clyde and the Drifters - What'cha Gonna Do
TTITLE12=McPhatter, Clyde and the Drifters - Everyone's Laughing
TTITLE13=McPhatter, Clyde and the Drifters - Hot Ziggety
TTITLE14=McPhatter, Clyde and the Drifters - Gone
TTITLE15=McPhatter, Clyde and the Drifters - Let the Boogie Woogie Roll (Unreleas
TTITLE15=ed Alternate Take)
TTITLE16=McPhatter, Clyde and the Drifters - Don't Dog Me
TTITLE17=McPhatter, Clyde and the Drifters - If I Didn't Love You Like I Do
TTITLE18=McPhatter, Clyde and the Drifters - There You Go
TTITLE19=McPhatter, Clyde and the Drifters - Try, Try Baby
TTITLE20=McPhatter, Clyde and the Drifters - Three Thirty Three
TTITLE21=McPhatter, Clyde and the Drifters - Let the Boogie Woogie Roll
TTITLE22=Brown, Ruth and the Rhythmakers - Please Don't Freeze
TTITLE23=Brown, Ruth and the Rhythmakers - Oh What A Dream
TTITLE24=Brown, Ruth and the Rhythmakers - Somebody Touched Me
TTITLE25=Brown, Ruth and the Rhythmakers - Ol' Man River
EXTD=Jasmine Records JASCD 526 c. 2009 import. Note Disk 1 is by McPhatter
EXTD=, Clyde and the Drifters but disk 2 is just the Drifters as Clyde had le
EXTD=ft. Trackes 15-26 are Bonus Tracks.
EXTT0=
EXTT1=
EXTT2=
EXTT3=
EXTT4=
EXTT5=
EXTT6=
EXTT7=
EXTT8=
EXTT9=
EXTT10=
EXTT11=
EXTT12=
EXTT13=
EXTT14=
EXTT15=
EXTT16=
EXTT17=
EXTT18=
EXTT19=
EXTT20=
EXTT21=
EXTT22=
EXTT23=
EXTT24=
EXTT25=
PLAYORDER=
